# xmcd
#
# Track frame offsets:
#	150
#	18520
#	35545
#
# Disc length: 872 seconds
#
# Revision: 0
# Processed by: cddbd v1.5.2PL0 Copyright (c) Steve Scherf et al.
# Submitted via: audiograbber 1.83.01
#
DISCID=1c036603
DTITLE=Mascara - Assanvessankassa [CDS)
DYEAR=1997
DGENRE=Dance
TTITLE0=Assanvessankassa (70' Testoestrogene Remix)
TTITLE1=Assanvessankassa (Original)
TTITLE2=Assanvessankassa (Norman Key's Drum-Attic Experiences From Illuminated 
TTITLE2=Lavatories)
EXTD=TR.
EXTT0=
EXTT1=
EXTT2=
PLAYORDER=
